<?xml version="1.0" encoding="utf-8"?>
<!-- Generator: Adobe Illustrator 16.0.0, SVG Export Plug-In . SVG Version: 6.00 Build 0)  -->
<!DOCTYPE svg PUBLIC "-//W3C//DTD SVG 1.1//EN" "http://www.w3.org/Graphics/SVG/1.1/DTD/svg11.dtd">

<svg xmlns="http://www.w3.org/2000/svg" width="38" height="38" viewBox="0 0 38 38"><defs><style>.a{fill:#fff;}</style></defs><path class="a" d="M242.686,349.966a18.886,18.886,0,0,1-5.564-13.435v-.184a19,19,0,0,1,18.671-18.816h.329a19,19,0,0,1,19,19v.184a19,19,0,0,1-18.671,18.816h-.329A18.884,18.884,0,0,1,242.686,349.966Zm13.436,2.6h.548a16.076,16.076,0,0,0,3.1-.41h.008l.1-.022.051-.013h.019a16.084,16.084,0,0,0,9.389-6.5,1.618,1.618,0,0,1,.1-.169,15.96,15.96,0,0,0,2.723-8.756v-.163a16.047,16.047,0,0,0-16.03-16.026h-.549a15.99,15.99,0,0,0-2.438.269h0l-.125.024H253l-.111.022-.073.016h-.028a16.073,16.073,0,0,0-9.88,6.615,1.386,1.386,0,0,1-.1.169,15.985,15.985,0,0,0-2.717,8.757v.161A16.049,16.049,0,0,0,256.122,352.562Z" transform="translate(-237.122 -317.531)"/><path class="a" d="M259.159,325.854a1.31,1.31,0,0,0-1.309,1.309v5.675a.436.436,0,1,1-.872,0v-8.294a1.309,1.309,0,0,0-2.619,0v7.421a.437.437,0,1,1-.874,0v-8.293a1.309,1.309,0,1,0-2.619,0v8.293a.437.437,0,1,1-.874,0v-6.547a1.309,1.309,0,1,0-2.619,0v10.912l-1.767-2.419a1.7,1.7,0,0,0-2.3-.611,1.653,1.653,0,0,0-.421,2.3l0,0s2.85,4.316,4.066,6.164,3.187,3.292,6.868,3.292c6.1,0,6.64-4.707,6.64-6.112V327.164A1.31,1.31,0,0,0,259.159,325.854Z" transform="translate(-233.929 -314.712)"/></svg>