<?xml version="1.0" encoding="utf-8"?>
<!-- Generator: Adobe Illustrator 16.0.0, SVG Export Plug-In . SVG Version: 6.00 Build 0)  -->
<!DOCTYPE svg PUBLIC "-//W3C//DTD SVG 1.1//EN" "http://www.w3.org/Graphics/SVG/1.1/DTD/svg11.dtd">
<svg version="1.1" id="Layer_1" xmlns="http://www.w3.org/2000/svg" xmlns:xlink="http://www.w3.org/1999/xlink" x="0px" y="0px"
	 width="180px" height="60px" viewBox="0 0 180 60" enable-background="new 0 0 180 60" xml:space="preserve">
<path fill="#29384D" d="M65.32,22.93c1.378,0.825,2.068,1.699,2.068,2.627c0,0.533-0.266,1.26-0.796,2.19l-8.237,14.129
	c-0.263,0.451-0.689,0.857-1.272,1.214c-0.584,0.357-1.165,0.536-1.733,0.536c-0.571,0-1.116-0.14-1.633-0.418
	c-0.517-0.276-0.881-0.564-1.093-0.857l-0.358-0.436l-8.276-14.168c-0.533-0.877-0.796-1.592-0.796-2.149
	c0-0.956,0.69-1.844,2.068-2.669c1.006-0.581,1.803-0.873,2.385-0.873c0.586,0,1.043,0.178,1.377,0.534
	c0.328,0.36,0.682,0.895,1.052,1.613l5.213,10.03l5.217-10.03c0.289-0.505,0.51-0.868,0.654-1.095
	c0.145-0.226,0.38-0.45,0.695-0.676c0.32-0.225,0.745-0.339,1.276-0.339C63.66,22.095,64.392,22.376,65.32,22.93"/>
<path fill="#29384D" d="M76.125,18.574c-0.199,0.384-0.55,0.657-1.053,0.815c-0.505,0.162-1.175,0.238-2.013,0.238
	c-0.834,0-1.507-0.077-2.01-0.238c-0.503-0.158-0.854-0.438-1.053-0.837c-0.201-0.397-0.319-0.749-0.36-1.053
	c-0.039-0.305-0.058-0.765-0.058-1.372c0-0.609,0.019-1.069,0.058-1.374c0.042-0.305,0.155-0.644,0.339-1.016
	c0.37-0.717,1.406-1.076,3.105-1.076c1.674,0,2.68,0.358,3.026,1.076c0.21,0.397,0.338,0.751,0.377,1.054
	c0.039,0.308,0.06,0.763,0.06,1.375c0,0.61-0.021,1.069-0.06,1.374C76.443,17.842,76.323,18.189,76.125,18.574 M69.578,25.957
	c0-0.61,0.019-1.066,0.058-1.372c0.042-0.305,0.155-0.658,0.339-1.057c0.37-0.69,1.406-1.036,3.105-1.036
	c1.274,0,2.177,0.228,2.706,0.681c0.453,0.37,0.692,0.938,0.716,1.71c0.027,0.264,0.041,0.649,0.041,1.152v13.93
	c0,0.612-0.021,1.068-0.06,1.376c-0.039,0.301-0.167,0.656-0.377,1.054c-0.346,0.689-1.368,1.033-3.065,1.033
	c-1.672,0-2.696-0.358-3.066-1.076c-0.184-0.397-0.297-0.737-0.339-1.031c-0.039-0.292-0.058-0.758-0.058-1.394V25.957z"/>
<path fill="#29384D" d="M105.635,29.499l-2.587-0.157v5.49c0,0.718,0.116,1.235,0.34,1.552c0.225,0.321,0.65,0.478,1.273,0.478
	c0.622,0,1.101,0.023,1.433,0.062c0.33,0.04,0.67,0.165,1.015,0.378c0.636,0.345,0.955,1.233,0.955,2.665
	c0,1.673-0.371,2.693-1.115,3.067c-0.396,0.184-0.748,0.298-1.054,0.335c-0.305,0.042-0.752,0.061-1.332,0.061
	c-2.655,0-4.724-0.688-6.209-2.068c-1.486-1.38-2.231-3.424-2.231-6.129v-5.889c-1.273,0.106-2.331,0.157-3.182,0.157l-3.625-0.157
	v5.49c0,0.718,0.112,1.235,0.339,1.552c0.226,0.321,0.65,0.478,1.272,0.478c0.623,0,1.101,0.023,1.432,0.062
	c0.336,0.04,0.685,0.165,1.059,0.378c0.609,0.345,0.913,1.233,0.913,2.665c0,1.673-0.37,2.693-1.111,3.067
	c-0.399,0.184-0.754,0.298-1.059,0.335c-0.305,0.042-0.747,0.061-1.333,0.061c-2.65,0-4.722-0.688-6.208-2.068
	c-1.485-1.38-2.23-3.424-2.23-6.129v-5.889c-0.53,0.077-1.079,0.116-1.652,0.116c-0.568,0-1.046-0.223-1.43-0.675
	c-0.387-0.45-0.579-1.222-0.579-2.308c0-1.089,0.069-1.877,0.199-2.369c0.133-0.492,0.32-0.843,0.559-1.055
	c0.424-0.346,0.954-0.517,1.592-0.517l1.312,0.16v-4.101c0-0.609,0.021-1.06,0.06-1.35c0.042-0.293,0.167-0.612,0.381-0.958
	c0.342-0.66,1.364-0.995,3.062-0.995c1.805,0,2.88,0.492,3.223,1.471c0.134,0.426,0.201,1.104,0.201,2.03v3.784
	c1.248-0.027,2.427-0.041,3.542-0.041l3.265,0.041v-3.982c0-0.609,0.022-1.06,0.062-1.35c0.037-0.293,0.151-0.612,0.337-0.958
	c0.372-0.66,1.406-0.995,3.105-0.995c1.803,0,2.865,0.492,3.182,1.471c0.161,0.426,0.239,1.104,0.239,2.03v3.902
	c1.167-0.104,2.051-0.16,2.648-0.16c0.595,0,1.047,0.019,1.352,0.06c0.305,0.039,0.645,0.167,1.016,0.378
	c0.716,0.342,1.075,1.367,1.075,3.062c0,1.675-0.359,2.696-1.075,3.068c-0.396,0.184-0.749,0.297-1.054,0.339
	C106.702,29.479,106.247,29.499,105.635,29.499"/>
<path fill="#29384D" d="M120.64,43.349c-2.681,0-4.902-1.014-6.667-3.043c-1.765-2.032-2.646-4.506-2.646-7.424v-6.965
	c0-0.638,0.02-1.101,0.06-1.393c0.039-0.291,0.152-0.637,0.337-1.036c0.372-0.716,1.406-1.074,3.105-1.074
	c1.857,0,2.946,0.506,3.265,1.515c0.158,0.42,0.238,1.101,0.238,2.03v6.96c0,1.093,0.312,1.94,0.936,2.551
	c0.622,0.608,1.458,0.913,2.507,0.913c1.047,0,1.897-0.316,2.545-0.954c0.652-0.638,0.979-1.472,0.979-2.51v-7.043
	c0-0.609,0.019-1.067,0.059-1.372c0.041-0.305,0.166-0.658,0.378-1.057c0.345-0.687,1.366-1.033,3.064-1.033
	c1.671,0,2.693,0.358,3.064,1.074c0.187,0.399,0.3,0.752,0.338,1.057c0.04,0.305,0.062,0.762,0.062,1.372v14.088
	c0,0.583-0.021,1.03-0.062,1.336c-0.038,0.304-0.165,0.643-0.378,1.013c-0.397,0.69-1.42,1.037-3.064,1.037
	c-1.618,0-2.612-0.321-2.984-0.957c-0.267-0.45-0.399-0.994-0.399-1.633c-0.106,0.185-0.345,0.452-0.715,0.795
	c-0.371,0.347-0.73,0.64-1.076,0.878C122.682,43.058,121.698,43.349,120.64,43.349"/>
<path fill="#29384D" d="M149.513,13.72c0.199-0.388,0.552-0.658,1.055-0.818s1.175-0.24,2.011-0.24s1.505,0.081,2.011,0.24
	c0.503,0.16,0.854,0.438,1.054,0.834c0.198,0.399,0.318,0.752,0.358,1.055c0.038,0.307,0.06,0.761,0.06,1.375v23.761
	c0,0.61-0.021,1.068-0.06,1.373c-0.04,0.305-0.167,0.645-0.378,1.014c-0.399,0.719-1.52,1.075-3.364,1.075
	c-1.846,0-2.873-0.649-3.083-1.949c-1.115,1.273-2.667,1.909-4.657,1.909c-2.389,0-4.564-1.04-6.527-3.124
	c-1.964-2.084-2.946-4.513-2.946-7.283c0-2.773,0.992-5.207,2.965-7.303c1.978-2.096,4.146-3.144,6.509-3.144
	c1.964,0,3.487,0.663,4.577,1.989v-8.357c0-0.609,0.019-1.069,0.059-1.374C149.194,14.448,149.315,14.105,149.513,13.72
	 M143.045,35.348c0.689,0.719,1.525,1.074,2.509,1.074c0.98,0,1.796-0.355,2.447-1.074c0.649-0.715,0.974-1.504,0.974-2.366
	s-0.312-1.666-0.934-2.409c-0.626-0.739-1.467-1.115-2.525-1.115c-1.065,0-1.914,0.369-2.549,1.096
	c-0.638,0.728-0.957,1.531-0.957,2.41C142.01,33.836,142.354,34.633,143.045,35.348"/>
<path fill="#29384D" d="M179.462,30.435c0,1.63-0.404,2.839-1.212,3.624c-0.81,0.78-1.706,1.172-2.687,1.172h-9.434
	c0,0.741,0.437,1.365,1.313,1.871s1.751,0.756,2.627,0.756c1.538,0,2.746-0.16,3.622-0.477l0.438-0.161
	c0.638-0.29,1.167-0.435,1.592-0.435c0.849,0,1.578,0.596,2.188,1.788c0.344,0.716,0.517,1.33,0.517,1.832
	c0,2.357-2.825,3.543-8.477,3.543c-1.963,0-3.707-0.34-5.233-1.016c-1.526-0.681-2.712-1.573-3.563-2.688
	c-1.669-2.146-2.506-4.551-2.506-7.204c0-3.343,1.082-6.017,3.243-8.02c2.162-2.002,4.863-3.004,8.1-3.004
	c3.688,0,6.396,1.299,8.12,3.899C179.011,27.297,179.462,28.802,179.462,30.435 M171.065,31.608c1.009,0,1.512-0.425,1.512-1.272
	c0-0.609-0.231-1.101-0.696-1.476c-0.462-0.371-1.127-0.554-1.989-0.554s-1.719,0.351-2.566,1.052
	c-0.851,0.704-1.275,1.453-1.275,2.25H171.065z"/>
<path fill="#F26B5B" d="M14.851,28.225c2.777-4.968,6.379-9.544,8.267-12.431c6.481-9.909,2.969-13.103,2.969-13.103
	s-1.009,3.513-4.312,8.163c-5.753,8.098-8.828,11.655-11.141,14.645c-2.124-1.318-4.038-2.451-5.429-3.397
	c-3.873-2.637-4.676-3.442-4.676-3.442s-0.676,2.68,2.175,4.529c1.86,1.208,4.169,2.602,6.582,4.125
	c-1.609,2.264-2.992,4.679-5.04,9.092C0.82,43.788,3.959,58.881,19.292,56.031c5.552-1.035,8.041-6.039,8.3-9.72
	C28.128,38.732,21.412,32.707,14.851,28.225 M22.742,47.069c-1.981,2.082-7.803,3.637-10.823-3.113
	c-1.81-4.043-0.489-8.965,1.857-13.697C21.356,35.485,27.888,41.666,22.742,47.069"/>
<path fill="#F26B5B" d="M10.904,13.438c1.733,0,3.137-1.404,3.137-3.135c0-1.732-1.404-3.137-3.137-3.137
	c-1.731,0-3.135,1.405-3.135,3.137C7.769,12.034,9.172,13.438,10.904,13.438"/>
</svg>
